<svg width="34" height="34" viewBox="0 0 34 34" fill="none" xmlns="http://www.w3.org/2000/svg">
<g id="Cart">
<path id="Shape" d="M3.54163 6.02081C3.54163 5.43401 4.01732 4.95831 4.60413 4.95831H5.395C6.7415 4.95831 7.54771 5.86355 8.00872 6.70505C8.31603 7.26598 8.53832 7.91656 8.71221 8.50558C8.7593 8.50187 8.807 8.49998 8.85526 8.49998H26.5597C27.7359 8.49998 28.5852 9.6254 28.2627 10.7564L25.6734 19.836C25.1962 21.5095 23.6671 22.6635 21.927 22.6635H13.5005C11.7459 22.6635 10.2079 21.4907 9.74355 19.7987L8.66619 15.8731L6.88318 9.854L6.88028 9.84346C6.6597 9.03904 6.45269 8.28755 6.14507 7.72605C5.84635 7.18078 5.60821 7.08331 5.395 7.08331H4.60413C4.01732 7.08331 3.54163 6.60762 3.54163 6.02081ZM12.75 29.75C14.3148 29.75 15.5833 28.4815 15.5833 26.9166C15.5833 25.3518 14.3148 24.0833 12.75 24.0833C11.1852 24.0833 9.91663 25.3518 9.91663 26.9166C9.91663 28.4815 11.1852 29.75 12.75 29.75ZM22.6666 29.75C24.2314 29.75 25.5 28.4815 25.5 26.9166C25.5 25.3518 24.2314 24.0833 22.6666 24.0833C21.1018 24.0833 19.8333 25.3518 19.8333 26.9166C19.8333 28.4815 21.1018 29.75 22.6666 29.75Z" fill="white"/>
</g>
</svg>
